<svg xmlns="http://www.w3.org/2000/svg" width="960" height="410" viewBox="0 0 960 410" role="img" aria-label="Физика домбры"><title>Физика домбры</title><defs>
  <linearGradient id="dk" x1="0" y1="0" x2="1" y2="1"><stop offset="0" stop-color="#2C4A36"/><stop offset="1" stop-color="#1C3024"/></linearGradient>
  <linearGradient id="mk" x1="0" y1="0" x2="1" y2="1"><stop offset="0" stop-color="#5A8A63"/><stop offset="1" stop-color="#2F5539"/></linearGradient>
  <pattern id="grid" width="24" height="24" patternUnits="userSpaceOnUse"><path d="M24 0H0V24" fill="none" stroke="#FFFFFF" stroke-opacity=".06"/></pattern>
  <marker id="ar" viewBox="0 0 10 10" refX="8" refY="5" markerWidth="7" markerHeight="7" orient="auto"><path d="M0 0L10 5L0 10z" fill="#8A958C"/></marker>
</defs><rect width="960" height="410" rx="22" fill="#F7F6F0"/><text x="40" y="52" font-size="12" fill="#2F5539" font-weight="700" font-family="'Segoe UI', Manrope, 'Helvetica Neue', Arial, sans-serif" letter-spacing="1.6">СДЕЛАНО В КАЗАХСТАНЕ</text><text x="40" y="90" font-size="30" fill="#182B24" font-weight="400" font-family="Georgia, 'Times New Roman', serif">Физика домбры: закон струны своими руками</text><text x="40" y="120" font-size="15" fill="#5F6B63" font-weight="400" font-family="'Segoe UI', Manrope, 'Helvetica Neue', Arial, sans-serif">Зажимаешь струну на ладу, меряешь длину линейкой, телефон слышит щипок — точки ложатся на f = a / L.</text><rect x="40" y="150" width="440" height="190" rx="18" fill="#E2ECDD"/><g transform="translate(62 108) scale(1.32)" fill="none" stroke-linecap="round" stroke-linejoin="round">
    <path d="M30 90C30 62 58 52 92 59c20 4 34 17 38 31-4 14-18 27-38 31-34 7-62-3-62-31z" fill="#FFFFFF" stroke="#182B24" stroke-width="2.4"/>
    <circle cx="80" cy="90" r="9" stroke="#182B24" stroke-width="2.2"/>
    <rect x="128" y="83" width="152" height="14" rx="4" fill="#FFFFFF" stroke="#182B24" stroke-width="2.2"/>
    <rect x="276" y="78" width="22" height="24" rx="5" fill="#FFFFFF" stroke="#182B24" stroke-width="2.2"/><path d="M264.0 83V97" stroke="#8A958C" stroke-width="1.8" stroke-linecap="round"/><path d="M252.7 83V97" stroke="#8A958C" stroke-width="1.8" stroke-linecap="round"/><path d="M242.0 83V97" stroke="#8A958C" stroke-width="1.8" stroke-linecap="round"/><path d="M231.9 83V97" stroke="#8A958C" stroke-width="1.8" stroke-linecap="round"/><path d="M222.3 83V97" stroke="#8A958C" stroke-width="1.8" stroke-linecap="round"/><path d="M213.3 83V97" stroke="#8A958C" stroke-width="1.8" stroke-linecap="round"/><path d="M204.8 83V97" stroke="#8A958C" stroke-width="1.8" stroke-linecap="round"/><path d="M196.8 83V97" stroke="#8A958C" stroke-width="1.8" stroke-linecap="round"/><path d="M189.2 83V97" stroke="#8A958C" stroke-width="1.8" stroke-linecap="round"/><path d="M182.1 83V97" stroke="#8A958C" stroke-width="1.8" stroke-linecap="round"/><path d="M175.4 83V97" stroke="#8A958C" stroke-width="1.8" stroke-linecap="round"/><path d="M169.0 83V97" stroke="#426D4F" stroke-width="3" stroke-linecap="round"/><path d="M163.0 83V97" stroke="#8A958C" stroke-width="1.8" stroke-linecap="round"/><path d="M157.3 83V97" stroke="#8A958C" stroke-width="1.8" stroke-linecap="round"/>
    <rect x="59" y="82" width="6" height="16" rx="2" fill="#426D4F"/>
    <path d="M62 87.5H280M62 92.5Q171 97 280 92.5" stroke="#182B24" stroke-width="1.4"/>
    <text x="169" y="70" font-size="20" font-style="italic" font-family="Georgia, 'Times New Roman', serif" fill="#426D4F" text-anchor="middle" stroke="none">½</text>
    <path d="M169 74V82" stroke="#8A958C" stroke-width="2" stroke-dasharray="3 4"/></g><rect x="500" y="150" width="420" height="190" rx="18" fill="#FFFFFF" stroke="#DDE2D7"/><path d="M550 166V306H894" fill="none" stroke="#8A958C" stroke-width="1.2"/><path d="M550 264.125H894" stroke="#DDE2D7"/><text x="542" y="268.125" font-size="11" fill="#8A958C" font-weight="400" font-family="'Segoe UI', Manrope, 'Helvetica Neue', Arial, sans-serif" text-anchor="end">150</text><path d="M550 222.25H894" stroke="#DDE2D7"/><text x="542" y="226.25" font-size="11" fill="#8A958C" font-weight="400" font-family="'Segoe UI', Manrope, 'Helvetica Neue', Arial, sans-serif" text-anchor="end">300</text><path d="M550 180.375H894" stroke="#DDE2D7"/><text x="542" y="184.375" font-size="11" fill="#8A958C" font-weight="400" font-family="'Segoe UI', Manrope, 'Helvetica Neue', Arial, sans-serif" text-anchor="end">450</text><text x="578.6666666666666" y="324" font-size="11" fill="#8A958C" font-weight="400" font-family="'Segoe UI', Manrope, 'Helvetica Neue', Arial, sans-serif" text-anchor="middle">20 см</text><text x="664.6666666666666" y="324" font-size="11" fill="#8A958C" font-weight="400" font-family="'Segoe UI', Manrope, 'Helvetica Neue', Arial, sans-serif" text-anchor="middle">35 см</text><text x="865.3333333333333" y="324" font-size="11" fill="#8A958C" font-weight="400" font-family="'Segoe UI', Manrope, 'Helvetica Neue', Arial, sans-serif" text-anchor="middle">70 см</text><path d="M587.3 172.3L593.0 178.2L598.7 183.6L604.5 188.6L610.2 193.2L615.9 197.5L621.7 201.4L627.4 205.1L633.1 208.5L638.9 211.7L644.6 214.7L650.3 217.5L656.1 220.2L661.8 222.7L667.5 225.0L673.3 227.2L679.0 229.3L684.7 231.3L690.5 233.2L696.2 235.0L701.9 236.7L707.7 238.3L713.4 239.9L719.1 241.4L724.9 242.8L730.6 244.2L736.3 245.5L742.1 246.7L747.8 247.9L753.5 249.1L759.3 250.2L765.0 251.2L770.7 252.3L776.5 253.2L782.2 254.2L787.9 255.1L793.7 256.0L799.4 256.8L805.1 257.7L810.9 258.5L816.6 259.2L822.3 260.0L828.1 260.7L833.8 261.4L839.5 262.1L845.3 262.8L851.0 263.4L856.7 264.0L862.5 264.6L868.2 265.2L873.9 265.8L879.7 266.3L885.4 266.9L891.1 267.4" fill="none" stroke="#426D4F" stroke-width="2.8"/><circle cx="865.3333333333333" cy="264.68333333333334" r="5" fill="#182B24" stroke="#fff" stroke-width="2"/><circle cx="808" cy="258.5416666666667" r="5" fill="#182B24" stroke="#fff" stroke-width="2"/><circle cx="765" cy="250.44583333333333" r="5" fill="#182B24" stroke="#fff" stroke-width="2"/><circle cx="730.6" cy="244.8625" r="5" fill="#182B24" stroke="#fff" stroke-width="2"/><circle cx="664.6666666666666" cy="225.04166666666669" r="5" fill="#182B24" stroke="#fff" stroke-width="2"/><circle cx="613.0666666666666" cy="194.05416666666667" r="5" fill="#182B24" stroke="#fff" stroke-width="2"/><path d="M664.6666666666666 223.925V306" stroke="#A96C08" stroke-width="1.6" stroke-dasharray="4 4"/><text x="672.6666666666666" y="296" font-size="11.5" fill="#A96C08" font-weight="700" font-family="'Segoe UI', Manrope, 'Helvetica Neue', Arial, sans-serif">половина — октава</text><text x="902" y="178" font-size="11.5" fill="#5F6B63" font-weight="400" font-family="'Segoe UI', Manrope, 'Helvetica Neue', Arial, sans-serif" text-anchor="end">частота, Гц ↑ · длина, см →</text><rect x="40" y="358" width="230.6" height="30" rx="15" fill="#FFFFFF" stroke="#DDE2D7"/><text x="155.3" y="378" font-size="12" fill="#2F5539" font-weight="600" font-family="'Segoe UI', Manrope, 'Helvetica Neue', Arial, sans-serif" text-anchor="middle">f = (1/2L)·√(T/μ) — Мерсенн, 1636</text><rect x="278.6" y="358" width="336" height="30" rx="15" fill="#FFFFFF" stroke="#DDE2D7"/><text x="446.6" y="378" font-size="12" fill="#2F5539" font-weight="600" font-family="'Segoe UI', Manrope, 'Helvetica Neue', Arial, sans-serif" text-anchor="middle">Аль-Фараби: лад — отношение длин струны (9/8, 4/3)</text><rect x="622.6" y="358" width="236.8" height="30" rx="15" fill="#FFFFFF" stroke="#DDE2D7"/><text x="741" y="378" font-size="12" fill="#2F5539" font-weight="600" font-family="'Segoe UI', Manrope, 'Helvetica Neue', Arial, sans-serif" text-anchor="middle">Тон ищется по гармоникам f, 2f, 3f</text></svg>
