<svg xmlns="http://www.w3.org/2000/svg" width="960" height="736" viewBox="0 0 960 736" role="img" aria-label="Десять опытов"><title>Десять опытов</title><defs>
  <linearGradient id="dk" x1="0" y1="0" x2="1" y2="1"><stop offset="0" stop-color="#2C4A36"/><stop offset="1" stop-color="#1C3024"/></linearGradient>
  <linearGradient id="mk" x1="0" y1="0" x2="1" y2="1"><stop offset="0" stop-color="#5A8A63"/><stop offset="1" stop-color="#2F5539"/></linearGradient>
  <pattern id="grid" width="24" height="24" patternUnits="userSpaceOnUse"><path d="M24 0H0V24" fill="none" stroke="#FFFFFF" stroke-opacity=".06"/></pattern>
  <marker id="ar" viewBox="0 0 10 10" refX="8" refY="5" markerWidth="7" markerHeight="7" orient="auto"><path d="M0 0L10 5L0 10z" fill="#8A958C"/></marker>
</defs><rect width="960" height="736" rx="22" fill="#F7F6F0"/><text x="40" y="52" font-size="12" fill="#2F5539" font-weight="700" font-family="'Segoe UI', Manrope, 'Helvetica Neue', Arial, sans-serif" letter-spacing="1.6">ЭКСПЕРИМЕНТЫ</text><text x="40" y="90" font-size="30" fill="#182B24" font-weight="400" font-family="Georgia, 'Times New Roman', serif">Десять опытов с настоящими измерениями</text><rect x="40" y="128" width="280" height="120" rx="16" fill="#FFFFFF" stroke="#DDE2D7"/><rect x="40" y="148" width="4" height="80" rx="2" fill="#3E6FA8"/><rect x="58" y="146" width="44" height="44" rx="13" fill="#3E6FA8" fill-opacity=".12"/><g transform="translate(68 156) scale(1)" fill="none" stroke="#3E6FA8" stroke-width="1.8" stroke-linecap="round" stroke-linejoin="round"><path d="M4.2 20.4c-2-2-1.6-5.6.9-8.1 2.4-2.4 5.3-2.6 6.8-1.2 1.5 1.5 1.2 4.4-1.2 6.8-2.5 2.5-4.6 4.4-6.5 2.5z"/><path d="M11.4 11.6 19 4"/><path d="M17.6 2.6l3.8 3.8M13.3 8.3l1.4 1.4M15.3 6.3l1.4 1.4"/><path d="M5.8 16.8l2.8-2.8"/></g><text x="116" y="166" font-size="15.5" fill="#182B24" font-weight="700" font-family="'Segoe UI', Manrope, 'Helvetica Neue', Arial, sans-serif">Физика домбры</text><text x="116" y="188" font-size="12.5" fill="#5F6B63" font-weight="400" font-family="'Segoe UI', Manrope, 'Helvetica Neue', Arial, sans-serif">длина струны → частота</text><g transform="translate(58 212) scale(0.6666666666666666)" fill="none" stroke="#8A958C" stroke-width="1.8" stroke-linecap="round" stroke-linejoin="round"><rect x="9" y="3" width="6" height="11" rx="3"/><path d="M5.5 11a6.5 6.5 0 0 0 13 0M12 17.5V21"/></g><text x="80" y="225" font-size="12" fill="#8A958C" font-weight="400" font-family="'Segoe UI', Manrope, 'Helvetica Neue', Arial, sans-serif">микрофон</text><rect x="336" y="128" width="280" height="120" rx="16" fill="#FFFFFF" stroke="#DDE2D7"/><rect x="336" y="148" width="4" height="80" rx="2" fill="#3E6FA8"/><rect x="354" y="146" width="44" height="44" rx="13" fill="#3E6FA8" fill-opacity=".12"/><g transform="translate(364 156) scale(1)" fill="none" stroke="#3E6FA8" stroke-width="1.8" stroke-linecap="round" stroke-linejoin="round"><path d="M3 12h2M7 12v0M7 8.5v7M11 5v14M15 8v8M19 10.5v3M21.5 12h.5"/></g><text x="412" y="166" font-size="15.5" fill="#182B24" font-weight="700" font-family="'Segoe UI', Manrope, 'Helvetica Neue', Arial, sans-serif">Бутылочный оркестр</text><text x="412" y="188" font-size="12.5" fill="#5F6B63" font-weight="400" font-family="'Segoe UI', Manrope, 'Helvetica Neue', Arial, sans-serif">частота звука</text><g transform="translate(354 212) scale(0.6666666666666666)" fill="none" stroke="#8A958C" stroke-width="1.8" stroke-linecap="round" stroke-linejoin="round"><rect x="9" y="3" width="6" height="11" rx="3"/><path d="M5.5 11a6.5 6.5 0 0 0 13 0M12 17.5V21"/></g><text x="376" y="225" font-size="12" fill="#8A958C" font-weight="400" font-family="'Segoe UI', Manrope, 'Helvetica Neue', Arial, sans-serif">микрофон</text><rect x="632" y="128" width="280" height="120" rx="16" fill="#FFFFFF" stroke="#DDE2D7"/><rect x="632" y="148" width="4" height="80" rx="2" fill="#3E6FA8"/><rect x="650" y="146" width="44" height="44" rx="13" fill="#3E6FA8" fill-opacity=".12"/><g transform="translate(660 156) scale(1)" fill="none" stroke="#3E6FA8" stroke-width="1.8" stroke-linecap="round" stroke-linejoin="round"><path d="M12 3v8"/><circle cx="12" cy="15" r="3.6"/><path d="M4 21c1.6-3.4 4.5-5.4 8-5.4s6.4 2 8 5.4"/></g><text x="708" y="166" font-size="15.5" fill="#182B24" font-weight="700" font-family="'Segoe UI', Manrope, 'Helvetica Neue', Arial, sans-serif">Маятник</text><text x="708" y="188" font-size="12.5" fill="#5F6B63" font-weight="400" font-family="'Segoe UI', Manrope, 'Helvetica Neue', Arial, sans-serif">период колебаний → g</text><g transform="translate(650 212) scale(0.6666666666666666)" fill="none" stroke="#8A958C" stroke-width="1.8" stroke-linecap="round" stroke-linejoin="round"><path d="M9 11V5.5a1.7 1.7 0 0 1 3.4 0V11m0-1.5a1.7 1.7 0 0 1 3.4 0V12m0-1a1.7 1.7 0 0 1 3.4 0v3.5a6 6 0 0 1-6 6h-1a6 6 0 0 1-4.6-2.2L4.8 15a1.7 1.7 0 0 1 2.6-2.2L9 14.5"/></g><text x="672" y="225" font-size="12" fill="#8A958C" font-weight="400" font-family="'Segoe UI', Manrope, 'Helvetica Neue', Arial, sans-serif">касания</text><rect x="40" y="264" width="280" height="120" rx="16" fill="#FFFFFF" stroke="#DDE2D7"/><rect x="40" y="284" width="4" height="80" rx="2" fill="#3E6FA8"/><rect x="58" y="282" width="44" height="44" rx="13" fill="#3E6FA8" fill-opacity=".12"/><g transform="translate(68 292) scale(1)" fill="none" stroke="#3E6FA8" stroke-width="1.8" stroke-linecap="round" stroke-linejoin="round"><path d="M4 14v-2a8 8 0 0 1 16 0v2"/><rect x="2.5" y="13.5" width="4.5" height="7" rx="2.2"/><rect x="17" y="13.5" width="4.5" height="7" rx="2.2"/></g><text x="116" y="302" font-size="15.5" fill="#182B24" font-weight="700" font-family="'Segoe UI', Manrope, 'Helvetica Neue', Arial, sans-serif">Твой слух</text><text x="116" y="324" font-size="12.5" fill="#5F6B63" font-weight="400" font-family="'Segoe UI', Manrope, 'Helvetica Neue', Arial, sans-serif">граница слышимых частот</text><g transform="translate(58 348) scale(0.6666666666666666)" fill="none" stroke="#8A958C" stroke-width="1.8" stroke-linecap="round" stroke-linejoin="round"><path d="M4 9.5h3.5L12 5.5v13l-4.5-4H4z"/><path d="M15.5 9a4 4 0 0 1 0 6M18 6.5a7.5 7.5 0 0 1 0 11"/></g><text x="80" y="361" font-size="12" fill="#8A958C" font-weight="400" font-family="'Segoe UI', Manrope, 'Helvetica Neue', Arial, sans-serif">динамик</text><rect x="336" y="264" width="280" height="120" rx="16" fill="#FFFFFF" stroke="#DDE2D7"/><rect x="336" y="284" width="4" height="80" rx="2" fill="#3F8A55"/><rect x="354" y="282" width="44" height="44" rx="13" fill="#3F8A55" fill-opacity=".12"/><g transform="translate(364 292) scale(1)" fill="none" stroke="#3F8A55" stroke-width="1.8" stroke-linecap="round" stroke-linejoin="round"><circle cx="12" cy="12" r="8.5"/><path d="M12 7.5V12l3 2"/></g><text x="412" y="302" font-size="15.5" fill="#182B24" font-weight="700" font-family="'Segoe UI', Manrope, 'Helvetica Neue', Arial, sans-serif">Чувство времени</text><text x="412" y="324" font-size="12.5" fill="#5F6B63" font-weight="400" font-family="'Segoe UI', Manrope, 'Helvetica Neue', Arial, sans-serif">точность внутренних часов</text><g transform="translate(354 348) scale(0.6666666666666666)" fill="none" stroke="#8A958C" stroke-width="1.8" stroke-linecap="round" stroke-linejoin="round"><path d="M9 11V5.5a1.7 1.7 0 0 1 3.4 0V11m0-1.5a1.7 1.7 0 0 1 3.4 0V12m0-1a1.7 1.7 0 0 1 3.4 0v3.5a6 6 0 0 1-6 6h-1a6 6 0 0 1-4.6-2.2L4.8 15a1.7 1.7 0 0 1 2.6-2.2L9 14.5"/></g><text x="376" y="361" font-size="12" fill="#8A958C" font-weight="400" font-family="'Segoe UI', Manrope, 'Helvetica Neue', Arial, sans-serif">касания</text><rect x="632" y="264" width="280" height="120" rx="16" fill="#FFFFFF" stroke="#DDE2D7"/><rect x="632" y="284" width="4" height="80" rx="2" fill="#7A5BB0"/><rect x="650" y="282" width="44" height="44" rx="13" fill="#7A5BB0" fill-opacity=".12"/><g transform="translate(660 292) scale(1)" fill="none" stroke="#7A5BB0" stroke-width="1.8" stroke-linecap="round" stroke-linejoin="round"><path d="M13 2 4.5 13.5H11l-1 8.5 8.5-11.5H12z"/></g><text x="708" y="302" font-size="15.5" fill="#182B24" font-weight="700" font-family="'Segoe UI', Manrope, 'Helvetica Neue', Arial, sans-serif">Скорость мысли</text><text x="708" y="324" font-size="12.5" fill="#5F6B63" font-weight="400" font-family="'Segoe UI', Manrope, 'Helvetica Neue', Arial, sans-serif">время выбора, закон Хика</text><g transform="translate(650 348) scale(0.6666666666666666)" fill="none" stroke="#8A958C" stroke-width="1.8" stroke-linecap="round" stroke-linejoin="round"><path d="M9 11V5.5a1.7 1.7 0 0 1 3.4 0V11m0-1.5a1.7 1.7 0 0 1 3.4 0V12m0-1a1.7 1.7 0 0 1 3.4 0v3.5a6 6 0 0 1-6 6h-1a6 6 0 0 1-4.6-2.2L4.8 15a1.7 1.7 0 0 1 2.6-2.2L9 14.5"/></g><text x="672" y="361" font-size="12" fill="#8A958C" font-weight="400" font-family="'Segoe UI', Manrope, 'Helvetica Neue', Arial, sans-serif">касания</text><rect x="40" y="400" width="280" height="120" rx="16" fill="#FFFFFF" stroke="#DDE2D7"/><rect x="40" y="420" width="4" height="80" rx="2" fill="#7A5BB0"/><rect x="58" y="418" width="44" height="44" rx="13" fill="#7A5BB0" fill-opacity=".12"/><g transform="translate(68 428) scale(1)" fill="none" stroke="#7A5BB0" stroke-width="1.8" stroke-linecap="round" stroke-linejoin="round"><circle cx="12" cy="12" r="8.5"/><circle cx="12" cy="12" r="3.5"/></g><text x="116" y="438" font-size="15.5" fill="#182B24" font-weight="700" font-family="'Segoe UI', Manrope, 'Helvetica Neue', Arial, sans-serif">Закон Фиттса</text><text x="116" y="460" font-size="12.5" fill="#5F6B63" font-weight="400" font-family="'Segoe UI', Manrope, 'Helvetica Neue', Arial, sans-serif">время попадания в цель</text><g transform="translate(58 484) scale(0.6666666666666666)" fill="none" stroke="#8A958C" stroke-width="1.8" stroke-linecap="round" stroke-linejoin="round"><path d="M9 11V5.5a1.7 1.7 0 0 1 3.4 0V11m0-1.5a1.7 1.7 0 0 1 3.4 0V12m0-1a1.7 1.7 0 0 1 3.4 0v3.5a6 6 0 0 1-6 6h-1a6 6 0 0 1-4.6-2.2L4.8 15a1.7 1.7 0 0 1 2.6-2.2L9 14.5"/></g><text x="80" y="497" font-size="12" fill="#8A958C" font-weight="400" font-family="'Segoe UI', Manrope, 'Helvetica Neue', Arial, sans-serif">касания</text><rect x="336" y="400" width="280" height="120" rx="16" fill="#FFFFFF" stroke="#DDE2D7"/><rect x="336" y="420" width="4" height="80" rx="2" fill="#7A5BB0"/><rect x="354" y="418" width="44" height="44" rx="13" fill="#7A5BB0" fill-opacity=".12"/><g transform="translate(364 428) scale(1)" fill="none" stroke="#7A5BB0" stroke-width="1.8" stroke-linecap="round" stroke-linejoin="round"><path d="M12 3v4M12 17v4M3 12h4M17 12h4M6 6l2.5 2.5M15.5 15.5 18 18M18 6l-2.5 2.5M8.5 15.5 6 18"/></g><text x="412" y="438" font-size="15.5" fill="#182B24" font-weight="700" font-family="'Segoe UI', Manrope, 'Helvetica Neue', Arial, sans-serif">Как быстро ты учишься</text><text x="412" y="460" font-size="12.5" fill="#5F6B63" font-weight="400" font-family="'Segoe UI', Manrope, 'Helvetica Neue', Arial, sans-serif">степенной закон практики</text><g transform="translate(354 484) scale(0.6666666666666666)" fill="none" stroke="#8A958C" stroke-width="1.8" stroke-linecap="round" stroke-linejoin="round"><path d="M9 11V5.5a1.7 1.7 0 0 1 3.4 0V11m0-1.5a1.7 1.7 0 0 1 3.4 0V12m0-1a1.7 1.7 0 0 1 3.4 0v3.5a6 6 0 0 1-6 6h-1a6 6 0 0 1-4.6-2.2L4.8 15a1.7 1.7 0 0 1 2.6-2.2L9 14.5"/></g><text x="376" y="497" font-size="12" fill="#8A958C" font-weight="400" font-family="'Segoe UI', Manrope, 'Helvetica Neue', Arial, sans-serif">касания</text><rect x="632" y="400" width="280" height="120" rx="16" fill="#FFFFFF" stroke="#DDE2D7"/><rect x="632" y="420" width="4" height="80" rx="2" fill="#3F8A55"/><rect x="650" y="418" width="44" height="44" rx="13" fill="#3F8A55" fill-opacity=".12"/><g transform="translate(660 428) scale(1)" fill="none" stroke="#3F8A55" stroke-width="1.8" stroke-linecap="round" stroke-linejoin="round"><path d="M9.5 4.5a3 3 0 0 0-3 3v.3a3 3 0 0 0-2 5.2 3 3 0 0 0 2 5 3 3 0 0 0 3 2.5V4.5z"/><path d="M14.5 4.5a3 3 0 0 1 3 3v.3a3 3 0 0 1 2 5.2 3 3 0 0 1-2 5 3 3 0 0 1-3 2.5V4.5z"/></g><text x="708" y="438" font-size="15.5" fill="#182B24" font-weight="700" font-family="'Segoe UI', Manrope, 'Helvetica Neue', Arial, sans-serif">Магическое число семь</text><text x="708" y="460" font-size="12.5" fill="#5F6B63" font-weight="400" font-family="'Segoe UI', Manrope, 'Helvetica Neue', Arial, sans-serif">объём кратковременной памяти</text><g transform="translate(650 484) scale(0.6666666666666666)" fill="none" stroke="#8A958C" stroke-width="1.8" stroke-linecap="round" stroke-linejoin="round"><path d="M9 11V5.5a1.7 1.7 0 0 1 3.4 0V11m0-1.5a1.7 1.7 0 0 1 3.4 0V12m0-1a1.7 1.7 0 0 1 3.4 0v3.5a6 6 0 0 1-6 6h-1a6 6 0 0 1-4.6-2.2L4.8 15a1.7 1.7 0 0 1 2.6-2.2L9 14.5"/></g><text x="672" y="497" font-size="12" fill="#8A958C" font-weight="400" font-family="'Segoe UI', Manrope, 'Helvetica Neue', Arial, sans-serif">касания</text><rect x="40" y="536" width="280" height="120" rx="16" fill="#FFFFFF" stroke="#DDE2D7"/><rect x="40" y="556" width="4" height="80" rx="2" fill="#3F8A55"/><rect x="58" y="554" width="44" height="44" rx="13" fill="#3F8A55" fill-opacity=".12"/><g transform="translate(68 564) scale(1)" fill="none" stroke="#3F8A55" stroke-width="1.8" stroke-linecap="round" stroke-linejoin="round"><path d="M12 20.5 4.2 13a4.8 4.8 0 0 1 6.8-6.8l1 1 1-1A4.8 4.8 0 0 1 19.8 13z"/></g><text x="116" y="574" font-size="15.5" fill="#182B24" font-weight="700" font-family="'Segoe UI', Manrope, 'Helvetica Neue', Arial, sans-serif">Пульс камерой</text><text x="116" y="596" font-size="12.5" fill="#5F6B63" font-weight="400" font-family="'Segoe UI', Manrope, 'Helvetica Neue', Arial, sans-serif">восстановление пульса</text><g transform="translate(58 620) scale(0.6666666666666666)" fill="none" stroke="#8A958C" stroke-width="1.8" stroke-linecap="round" stroke-linejoin="round"><path d="M4 7.5h3.2L9 5h6l1.8 2.5H20a1 1 0 0 1 1 1V18a1 1 0 0 1-1 1H4a1 1 0 0 1-1-1V8.5a1 1 0 0 1 1-1z"/><circle cx="12" cy="13" r="3.4"/></g><text x="80" y="633" font-size="12" fill="#8A958C" font-weight="400" font-family="'Segoe UI', Manrope, 'Helvetica Neue', Arial, sans-serif">камера</text><rect x="336" y="536" width="576" height="120" rx="16" fill="#E2ECDD" stroke="#426D4F" stroke-dasharray="6 6"/><rect x="354" y="554" width="44" height="44" rx="13" fill="#FFFFFF"/><g transform="translate(364 564) scale(1)" fill="none" stroke="#2F5539" stroke-width="1.8" stroke-linecap="round" stroke-linejoin="round"><path d="M4 4v16h16"/><path d="M7.5 15.5 11 11l3 2.5L20 6"/></g><text x="412" y="574" font-size="15.5" fill="#182B24" font-weight="700" font-family="'Segoe UI', Manrope, 'Helvetica Neue', Arial, sans-serif">Общий график класса</text><text x="412" y="596" font-size="12.5" fill="#5F6B63" font-weight="400" font-family="'Segoe UI', Manrope, 'Helvetica Neue', Arial, sans-serif">с любым опытом: точки всех учеников на одном графике</text><text x="412" y="633" font-size="12" fill="#2F5539" font-weight="400" font-family="'Segoe UI', Manrope, 'Helvetica Neue', Arial, sans-serif">учитель открывает класс → ученики по ссылке qaltalab.site/c/КОД</text><circle cx="48" cy="702" r="6" fill="#3E6FA8"/><text x="60" y="707" font-size="13" fill="#5F6B63" font-weight="400" font-family="'Segoe UI', Manrope, 'Helvetica Neue', Arial, sans-serif">физика</text><circle cx="218" cy="702" r="6" fill="#3F8A55"/><text x="230" y="707" font-size="13" fill="#5F6B63" font-weight="400" font-family="'Segoe UI', Manrope, 'Helvetica Neue', Arial, sans-serif">биология</text><circle cx="388" cy="702" r="6" fill="#7A5BB0"/><text x="400" y="707" font-size="13" fill="#5F6B63" font-weight="400" font-family="'Segoe UI', Manrope, 'Helvetica Neue', Arial, sans-serif">мышление и данные</text></svg>
