<svg xmlns="http://www.w3.org/2000/svg" width="960" height="710" viewBox="0 0 960 710" role="img" aria-label="Пилоттық тестілеу"><title>Пилоттық тестілеу</title><defs>
  <linearGradient id="dk" x1="0" y1="0" x2="1" y2="1"><stop offset="0" stop-color="#2C4A36"/><stop offset="1" stop-color="#1C3024"/></linearGradient>
  <linearGradient id="mk" x1="0" y1="0" x2="1" y2="1"><stop offset="0" stop-color="#5A8A63"/><stop offset="1" stop-color="#2F5539"/></linearGradient>
  <pattern id="grid" width="24" height="24" patternUnits="userSpaceOnUse"><path d="M24 0H0V24" fill="none" stroke="#FFFFFF" stroke-opacity=".06"/></pattern>
  <marker id="ar" viewBox="0 0 10 10" refX="8" refY="5" markerWidth="7" markerHeight="7" orient="auto"><path d="M0 0L10 5L0 10z" fill="#8A958C"/></marker>
</defs><rect width="960" height="710" rx="22" fill="#F7F6F0"/><text x="40" y="52" font-size="12" fill="#2F5539" font-weight="700" font-family="'Segoe UI', Manrope, 'Helvetica Neue', Arial, sans-serif" letter-spacing="1.6">ПИЛОТТЫҚ ТЕСТІЛЕУ · N = 29</text><text x="40" y="90" font-size="30" fill="#182B24" font-weight="400" font-family="Georgia, 'Times New Roman', serif">Алғашқы пайдаланушылар не айтты</text><rect x="40" y="128" width="206" height="124" rx="16" fill="url(#dk)" stroke="none"/><text x="58" y="176" font-size="30" fill="#E7EBC5" font-weight="700" font-family="'Segoe UI', Manrope, 'Helvetica Neue', Arial, sans-serif">4,83 / 5</text><text x="58" y="204" font-size="12.5" fill="#C8D8C0" font-weight="400" font-family="'Segoe UI', Manrope, 'Helvetica Neue', Arial, sans-serif">телефоннан қолдану</text><text x="58" y="221" font-size="12.5" fill="#C8D8C0" font-weight="400" font-family="'Segoe UI', Manrope, 'Helvetica Neue', Arial, sans-serif">ыңғайлылығы</text><rect x="262" y="128" width="206" height="124" rx="16" fill="#FFFFFF" stroke="#DDE2D7"/><text x="280" y="176" font-size="30" fill="#2F5539" font-weight="700" font-family="'Segoe UI', Manrope, 'Helvetica Neue', Arial, sans-serif">4,79 / 5</text><text x="280" y="204" font-size="12.5" fill="#5F6B63" font-weight="400" font-family="'Segoe UI', Manrope, 'Helvetica Neue', Arial, sans-serif">жалпы баға</text><rect x="484" y="128" width="206" height="124" rx="16" fill="#FFFFFF" stroke="#DDE2D7"/><text x="502" y="176" font-size="30" fill="#2F5539" font-weight="700" font-family="'Segoe UI', Manrope, 'Helvetica Neue', Arial, sans-serif">100%</text><text x="502" y="204" font-size="12.5" fill="#5F6B63" font-weight="400" font-family="'Segoe UI', Manrope, 'Helvetica Neue', Arial, sans-serif">«иә» не «иә болар»: формат</text><text x="502" y="221" font-size="12.5" fill="#5F6B63" font-weight="400" font-family="'Segoe UI', Manrope, 'Helvetica Neue', Arial, sans-serif">STEM-ді түсінуге көмектеседі</text><rect x="706" y="128" width="206" height="124" rx="16" fill="#FFFFFF" stroke="#DDE2D7"/><text x="724" y="176" font-size="30" fill="#2F5539" font-weight="700" font-family="'Segoe UI', Manrope, 'Helvetica Neue', Arial, sans-serif">96,6%</text><text x="724" y="204" font-size="12.5" fill="#5F6B63" font-weight="400" font-family="'Segoe UI', Manrope, 'Helvetica Neue', Arial, sans-serif">интерактивті тәжірибелерді</text><text x="724" y="221" font-size="12.5" fill="#5F6B63" font-weight="400" font-family="'Segoe UI', Manrope, 'Helvetica Neue', Arial, sans-serif">атап өтті</text><rect x="40" y="270" width="880" height="260" rx="16" fill="#FFFFFF" stroke="#DDE2D7"/><text x="60" y="300" font-size="11.5" fill="#8A958C" font-weight="700" font-family="'Segoe UI', Manrope, 'Helvetica Neue', Arial, sans-serif" letter-spacing="1.2">НЕ ҰНАДЫ · БІРНЕШЕУІН ТАҢДАУҒА БОЛАТЫН</text><text x="60" y="334" font-size="14.5" fill="#182B24" font-weight="600" font-family="'Segoe UI', Manrope, 'Helvetica Neue', Arial, sans-serif">Интерактивті тәжірибелер</text><rect x="360" y="322" width="430" height="14" rx="7" fill="#E2ECDD"/><rect x="360" y="322" width="415" height="14" rx="7" fill="#426D4F"/><text x="900" y="334" font-size="13" fill="#5F6B63" font-weight="400" font-family="'Segoe UI', Manrope, 'Helvetica Neue', Arial, sans-serif" text-anchor="end">96,6% · 28/29</text><text x="60" y="374" font-size="14.5" fill="#182B24" font-weight="600" font-family="'Segoe UI', Manrope, 'Helvetica Neue', Arial, sans-serif">Дизайн</text><rect x="360" y="362" width="430" height="14" rx="7" fill="#E2ECDD"/><rect x="360" y="362" width="341" height="14" rx="7" fill="#426D4F"/><text x="900" y="374" font-size="13" fill="#5F6B63" font-weight="400" font-family="'Segoe UI', Manrope, 'Helvetica Neue', Arial, sans-serif" text-anchor="end">79,3% · 23/29</text><text x="60" y="414" font-size="14.5" fill="#182B24" font-weight="600" font-family="'Segoe UI', Manrope, 'Helvetica Neue', Arial, sans-serif">Телефон мүмкіндіктерін пайдалану</text><rect x="360" y="402" width="430" height="14" rx="7" fill="#E2ECDD"/><rect x="360" y="402" width="326" height="14" rx="7" fill="#426D4F"/><text x="900" y="414" font-size="13" fill="#5F6B63" font-weight="400" font-family="'Segoe UI', Manrope, 'Helvetica Neue', Arial, sans-serif" text-anchor="end">75,9% · 22/29</text><text x="60" y="454" font-size="14.5" fill="#182B24" font-weight="600" font-family="'Segoe UI', Manrope, 'Helvetica Neue', Arial, sans-serif">Қарапайымдылық</text><rect x="360" y="442" width="430" height="14" rx="7" fill="#E2ECDD"/><rect x="360" y="442" width="326" height="14" rx="7" fill="#426D4F"/><text x="900" y="454" font-size="13" fill="#5F6B63" font-weight="400" font-family="'Segoe UI', Manrope, 'Helvetica Neue', Arial, sans-serif" text-anchor="end">75,9% · 22/29</text><text x="60" y="494" font-size="14.5" fill="#182B24" font-weight="600" font-family="'Segoe UI', Manrope, 'Helvetica Neue', Arial, sans-serif">Орыс және қазақ тілдері</text><rect x="360" y="482" width="430" height="14" rx="7" fill="#E2ECDD"/><rect x="360" y="482" width="282" height="14" rx="7" fill="#426D4F"/><text x="900" y="494" font-size="13" fill="#5F6B63" font-weight="400" font-family="'Segoe UI', Manrope, 'Helvetica Neue', Arial, sans-serif" text-anchor="end">65,5% · 19/29</text><rect x="40" y="550" width="432" height="104" rx="16" fill="#FFFFFF" stroke="#DDE2D7"/><text x="58" y="580" font-size="13.5" fill="#182B24" font-weight="700" font-family="'Segoe UI', Manrope, 'Helvetica Neue', Arial, sans-serif">Сабақта не үйде қолданғысы келеді</text><rect x="58" y="598" width="300" height="14" fill="#426D4F" rx="4"/><rect x="358" y="598" width="96" height="14" fill="#A9C9A6"/><circle cx="64" cy="634" r="5" fill="#426D4F"/><text x="74" y="639" font-size="12.5" fill="#5F6B63" font-weight="400" font-family="'Segoe UI', Manrope, 'Helvetica Neue', Arial, sans-serif">75,9% міндетті</text><circle cx="202" cy="634" r="5" fill="#A9C9A6"/><text x="212" y="639" font-size="12.5" fill="#5F6B63" font-weight="400" font-family="'Segoe UI', Manrope, 'Helvetica Neue', Arial, sans-serif">24,1% мүмкін</text><circle cx="340" cy="634" r="5" fill="#D9A2A2"/><text x="350" y="639" font-size="12.5" fill="#5F6B63" font-weight="400" font-family="'Segoe UI', Manrope, 'Helvetica Neue', Arial, sans-serif">0% жоқ</text><rect x="488" y="550" width="432" height="104" rx="16" fill="#FFFFFF" stroke="#DDE2D7"/><text x="506" y="580" font-size="13.5" fill="#182B24" font-weight="700" font-family="'Segoe UI', Manrope, 'Helvetica Neue', Arial, sans-serif">QaltaLab-ты бірден түсінді</text><rect x="506" y="598" width="300" height="14" fill="#426D4F" rx="4"/><rect x="806" y="598" width="96" height="14" fill="#A9C9A6"/><circle cx="512" cy="634" r="5" fill="#426D4F"/><text x="522" y="639" font-size="12.5" fill="#5F6B63" font-weight="400" font-family="'Segoe UI', Manrope, 'Helvetica Neue', Arial, sans-serif">75,9% иә</text><circle cx="650" cy="634" r="5" fill="#A9C9A6"/><text x="660" y="639" font-size="12.5" fill="#5F6B63" font-weight="400" font-family="'Segoe UI', Manrope, 'Helvetica Neue', Arial, sans-serif">24,1% ішінара</text><circle cx="788" cy="634" r="5" fill="#D9A2A2"/><text x="798" y="639" font-size="12.5" fill="#5F6B63" font-weight="400" font-family="'Segoe UI', Manrope, 'Helvetica Neue', Arial, sans-serif">0% жоқ</text><text x="40" y="688" font-size="12.5" fill="#8A958C" font-weight="400" font-family="'Segoe UI', Manrope, 'Helvetica Neue', Arial, sans-serif">Пилоттық тестілеу, n = 29. Бұл — үлгерімді зерттеу емес, қатысушылардың өз бағасы.</text></svg>
